<svg width="134" height="52" viewBox="0 0 134 52" fill="none" xmlns="http://www.w3.org/2000/svg">
<path d="M46.0756 0.798828H40.3785C39.8211 0.798828 39.2912 1.0364 38.9257 1.45214L14.2366 29.0834C11.7467 31.5322 10.2299 34.9724 10.3396 38.769C10.5314 45.7682 16.3336 51.4287 23.3328 51.4607C30.5787 51.4927 36.4631 45.6357 36.4631 38.3944C36.4631 36.7679 36.1662 35.2054 35.618 33.7663C35.4992 33.4511 35.4992 33.0993 35.618 32.7795L47.0031 2.11459C47.2315 1.47955 46.7564 0.803387 46.0802 0.803387L46.0756 0.798828Z" fill="#FF791F"/>
<path d="M20.3498 20.5029L19.7878 18.6709L13.5562 1.8491C13.3095 1.19121 12.6835 0.748047 11.9708 0.748047H1.69132C0.5126 0.748047 -0.300609 1.91763 0.106002 3.01867L10.1388 30.4169C10.3215 30.9149 10.9749 31.0383 11.3267 30.6408L20.3452 20.5029H20.3498Z" fill="#00B444"/>
<path d="M17.2336 38.4578C17.2336 38.4578 17.2336 38.4715 17.2428 38.4852L18.9834 45.5895C19.0565 45.8865 19.2895 46.0875 19.5545 46.0875H27.1294C27.3943 46.0875 27.6273 45.8865 27.7004 45.5895L29.4411 38.4852C29.4411 38.4852 29.4411 38.4715 29.4502 38.4578C29.9482 38.4213 30.332 37.9553 30.332 37.3842C30.332 36.8131 29.9116 36.3105 29.3908 36.3105H28.3903L26.1151 38.9192C25.5075 39.6091 24.5709 39.7416 23.8445 39.2299C22.9718 38.6223 22.6932 37.3157 23.2231 36.3105H17.2839C16.7859 36.3105 16.3702 36.7537 16.3427 37.3248C16.3199 37.9096 16.7128 38.4213 17.2336 38.4578ZM26.0191 42.0214L26.2567 40.3218H27.7598L27.3441 42.0214H26.0191ZM25.6491 44.7215L25.8867 42.9854H27.1111L26.6908 44.7215H25.6537H25.6491ZM23.8399 42.9854H25.0324L24.7948 44.7215H23.8399V42.9854ZM23.8399 40.331H25.4024L25.1648 42.0305H23.8399V40.331ZM21.7475 42.9854H22.9993V44.7215H22.0444L21.7475 42.9854ZM21.2952 40.331H22.9993V42.0305H21.583L21.2952 40.331ZM19.5819 42.9854H20.8931L21.1901 44.7215H20.0113L19.5819 42.9854ZM18.9286 40.331H20.4408L20.7287 42.0305H19.3443L18.9286 40.331Z" fill="white"/>
<path d="M29.3189 33.6014L25.4035 38.0878C25.0792 38.467 24.5446 38.467 24.2157 38.0878C23.8868 37.7086 23.8913 37.101 24.2157 36.7309L28.131 32.2445C28.3001 32.0435 28.5833 32.0435 28.7524 32.2445L29.3143 32.8887C29.4834 33.0806 29.4834 33.4004 29.3143 33.6014H29.3189Z" fill="white"/>
<path d="M54.1481 24.7337V49.8522C54.1481 50.2725 53.8054 50.6151 53.3851 50.6151H49.5657C49.1454 50.6151 48.8027 50.2725 48.8027 49.8522V24.7337C48.8027 24.3133 49.1454 23.9707 49.5657 23.9707H53.3851C53.8054 23.9707 54.1481 24.3133 54.1481 24.7337Z" fill="#00B444"/>
<path d="M66.3002 46.1104H76.1C76.5203 46.1104 76.8629 46.4531 76.8629 46.8734V49.8522C76.8629 50.2725 76.5203 50.6151 76.1 50.6151H59.4563C59.036 50.6151 58.6934 50.2725 58.6934 49.8522V46.7226C58.6934 46.5719 58.7391 46.4257 58.8213 46.3023L69.8226 29.6587C70.1561 29.1516 69.7952 28.4754 69.1876 28.4754H59.4609C59.0406 28.4754 58.6979 28.1327 58.6979 27.7124V24.7337C58.6979 24.3133 59.0406 23.9707 59.4609 23.9707H76.1045C76.5248 23.9707 76.8675 24.3133 76.8675 24.7337V27.8632C76.8675 28.014 76.8218 28.1602 76.7396 28.2881L65.6697 44.9272C65.3316 45.4343 65.6971 46.115 66.3048 46.115L66.3002 46.1104Z" fill="#00B444"/>
<path d="M114.123 24.7337V49.8522C114.123 50.2725 113.78 50.6151 113.36 50.6151H109.54C109.12 50.6151 108.777 50.2725 108.777 49.8522V24.7337C108.777 24.3133 109.12 23.9707 109.54 23.9707H113.36C113.78 23.9707 114.123 24.3133 114.123 24.7337Z" fill="#00B444"/>
<path d="M125.498 46.3761H132.753C133.174 46.3761 133.516 46.7187 133.516 47.1391V49.8483C133.516 50.2686 133.174 50.6112 132.753 50.6112H120.158C119.737 50.6112 119.395 50.2686 119.395 49.8483V24.7298C119.395 24.3094 119.737 23.9668 120.158 23.9668H123.977C124.397 23.9668 124.74 24.3094 124.74 24.7298V45.6131C124.74 46.0334 125.083 46.3761 125.503 46.3761H125.498Z" fill="#00B444"/>
<path d="M91.529 37.3537C91.529 39.4507 84.4293 43.2107 84.3973 47.9073C84.3973 48.4875 84.4933 49.0632 84.6989 49.6297C84.8816 50.1277 84.5161 50.6577 83.9816 50.6577H82.2043C81.784 50.6577 81.4414 50.315 81.4414 49.8947V24.6985C81.4414 24.2782 81.784 23.9355 82.2043 23.9355H83.9998C84.5298 23.9355 84.8953 24.4609 84.7171 24.9589C84.5252 25.5026 84.4293 26.0554 84.4293 26.6173C84.4293 31.3368 91.529 35.2064 91.529 37.3583V37.3537Z" fill="#00B444"/>
<path d="M103.435 24.6927V49.8888C103.435 50.3092 103.093 50.6518 102.672 50.6518H100.854C100.324 50.6518 99.9586 50.1264 100.137 49.6239C100.342 49.0573 100.443 48.4817 100.438 47.9015C100.406 43.1912 93.3066 39.4494 93.3066 37.3479C93.3066 35.2463 100.406 31.3264 100.406 26.6115C100.406 26.0496 100.31 25.4967 100.119 24.9531C99.9404 24.4551 100.306 23.9297 100.836 23.9297H102.668C103.088 23.9297 103.431 24.2723 103.431 24.6927H103.435Z" fill="#00B444"/>
</svg>
